<svg width="30" height="30" viewBox="0 0 30 30" fill="none" xmlns="http://www.w3.org/2000/svg">
<rect width="30" height="30" rx="5" fill="#9BBD88"/>
<path d="M23 20.2475C23 20.5175 22.9399 20.795 22.8122 21.065C22.6845 21.335 22.5193 21.59 22.3015 21.83C21.9334 22.235 21.5278 22.5275 21.0696 22.715C20.6189 22.9025 20.1307 23 19.6049 23C18.8388 23 18.02 22.82 17.1562 22.4525C16.2924 22.085 15.4286 21.59 14.5724 20.9675C13.7086 20.3375 12.8898 19.64 12.1087 18.8675C11.335 18.0875 10.6365 17.27 10.013 16.415C9.3971 15.56 8.90135 14.705 8.54081 13.8575C8.18027 13.0025 8 12.185 8 11.405C8 10.895 8.09014 10.4075 8.27041 9.9575C8.45068 9.5 8.7361 9.08 9.1342 8.705C9.61492 8.2325 10.1407 8 10.6965 8C10.9069 8 11.1172 8.045 11.305 8.135C11.5003 8.225 11.673 8.36 11.8082 8.555L13.5508 11.0075C13.686 11.195 13.7837 11.3675 13.8513 11.5325C13.9189 11.69 13.9564 11.8475 13.9564 11.99C13.9564 12.17 13.9039 12.35 13.7987 12.5225C13.7011 12.695 13.5583 12.875 13.3781 13.055L12.8072 13.6475C12.7246 13.73 12.687 13.8275 12.687 13.9475C12.687 14.0075 12.6945 14.06 12.7096 14.12C12.7321 14.18 12.7546 14.225 12.7697 14.27C12.9049 14.5175 13.1377 14.84 13.4682 15.23C13.8062 15.62 14.1667 16.0175 14.5573 16.415C14.9629 16.8125 15.3535 17.18 15.7516 17.5175C16.1422 17.8475 16.4652 18.0725 16.7206 18.2075C16.7581 18.2225 16.8032 18.245 16.8558 18.2675C16.9159 18.29 16.976 18.2975 17.0436 18.2975C17.1713 18.2975 17.2689 18.2525 17.3515 18.17L17.9224 17.6075C18.1102 17.42 18.2904 17.2775 18.4632 17.1875C18.636 17.0825 18.8087 17.03 18.9965 17.03C19.1392 17.03 19.2894 17.06 19.4547 17.1275C19.6199 17.195 19.7927 17.2925 19.9805 17.42L22.4667 19.1825C22.662 19.3175 22.7972 19.475 22.8798 19.6625C22.9549 19.85 23 20.0375 23 20.2475Z" fill="#2E2E2E"/>
</svg>
